<svg xmlns="http://www.w3.org/2000/svg" width="22" height="15" viewBox="0 0 22 15">
  <g>
    <g>
      <g>
        <g>
          <path d="M13.166.194l-.665-.178a.307.307 0 0 0-.252.026.326.326 0 0 0-.165.203L8.078 13.646a.302.302 0 0 0 .026.255c.045.08.116.134.21.16l.666.178c.086.029.169.018.251-.026a.326.326 0 0 0 .166-.203L13.4.609a.302.302 0 0 0-.027-.255.335.335 0 0 0-.207-.16z"/>
        </g>
        <g>
          <path d="M6.489 2.863a.32.32 0 0 0-.11-.237l-.537-.51a.35.35 0 0 0-.248-.104.35.35 0 0 0-.248.104L.347 6.891a.316.316 0 0 0-.105.236c0 .09.038.17.11.237L5.35 12.14a.35.35 0 0 0 .248.104.35.35 0 0 0 .248-.104l.537-.514a.32.32 0 0 0 .11-.237.32.32 0 0 0-.11-.237l-4.22-4.024L6.38 3.1a.32.32 0 0 0 .109-.237z"/>
        </g>
        <g>
          <path d="M21.13 6.89l-5-4.774a.35.35 0 0 0-.247-.104.35.35 0 0 0-.248.104l-.538.514a.32.32 0 0 0-.109.237c0 .09.034.168.11.237l4.22 4.024-4.217 4.027a.32.32 0 0 0-.109.237c0 .09.034.169.109.237l.537.513a.35.35 0 0 0 .248.104.35.35 0 0 0 .249-.104l4.998-4.774a.32.32 0 0 0 .11-.237.34.34 0 0 0-.114-.24z"/>
        </g>
      </g>
    </g>
  </g>
</svg>