<svg xmlns="http://www.w3.org/2000/svg" width="16" height="16" viewBox="0 0 16 16">
  <g>
    <g>
      <g>
        <path d="M8.44 9.694L7.866 8.47a.672.672 0 0 0-.344-.345l-1.224-.573 3.5-1.359zm2.353-5.423l-6.57 2.554a.715.715 0 0 0-.46.64.706.706 0 0 0 .411.67L6.68 9.311l1.177 2.506a.72.72 0 0 0 .65.412h.029a.715.715 0 0 0 .64-.46l2.554-6.58a.71.71 0 0 0-.163-.765.745.745 0 0 0-.774-.153z"/>
      </g>
      <g>
        <path d="M8 14.716a6.734 6.734 0 0 1-6.725-6.724c0-3.699 3.018-6.717 6.725-6.717A6.734 6.734 0 0 1 14.725 8c-.009 3.698-3.027 6.716-6.725 6.716zM8 0C3.588 0 0 3.588 0 8s3.588 8 8 8 8-3.588 8-8c-.009-4.412-3.596-8-8-8z"/>
      </g>
    </g>
  </g>
</svg>