<svg xmlns="http://www.w3.org/2000/svg" width="16" height="16" viewBox="0 0 16 16"><g><g><g><g><path fill="#7f8cb5" d="M11.734 3.75l-.69-1.169 1.056-.653 1.113 1.825h-1.479zm-6.512 0l3.722-2.262.665 1.125a.498.498 0 0 0 .047.09.447.447 0 0 0 .044.063l.581.984zm9.528 6.781h-2.094a.627.627 0 0 1-.625-.625c0-.343.281-.625.625-.625h2.094zm-2.094-2.5c-1.034 0-1.875.841-1.875 1.875 0 1.035.84 1.875 1.875 1.875h2.656c.01 0 .022 0 .032-.003h.031a.627.627 0 0 0 .625-.625V6.25a2.5 2.5 0 0 0-1.038-2.025L12.838.738a.62.62 0 0 0-.863-.203l-1.569.968L9.7.306a.624.624 0 0 0-.862-.215L2.816 3.75h-.941a.626.626 0 0 1-.625-.61.626.626 0 0 1 .625-.61h1.156a.627.627 0 0 0 .625-.625.627.627 0 0 0-.625-.625H1.875A1.88 1.88 0 0 0 .05 2.722.645.645 0 0 0 0 2.97V13.5C0 14.878 1.122 16 2.5 16h11a2.497 2.497 0 0 0 2.372-1.71.626.626 0 0 0-.394-.79.626.626 0 0 0-.79.394c-.172.51-.647.853-1.188.853h-11c-.69 0-1.25-.56-1.25-1.25V4.894c.197.069.406.106.625.106H13.5c.69 0 1.25.56 1.25 1.25v1.781z"/></g></g></g></g></svg>