<svg xmlns="http://www.w3.org/2000/svg" width="30" height="30" viewBox="0 0 30 30"><g><g><g><path fill="#1d6ff7" d="M10.165 12.942c-.055.278-.11.556-.166.778 0 .056-.167.167-.278.167H7.943c-.166-.056-.333-.111-.444-.223-.278-.222-.555-.444-.944-.777 1.277 0 2.388 0 3.61.055zm8.443-9.11c.222.445.389.89.556 1.278.055.111 0 .223 0 .334-.056.444-.223.944-.278 1.388-.056.278-.167.334-.445.334h-.666c.222-1.167.5-2.222.722-3.333h.111zM20.83 20.33c.278.666.722 1.166.555 1.944-.333 1.11-.555 2.333-.833 3.5-.055.277-.166.388-.444.388-2 0-4 .056-6-.055-1.499-.056-2.943-.556-3.943-1.833-.11-.112-.166-.278-.222-.445.167.111.333.278.555.389 1 .667 2.167.944 3.333.944h5.444c.222 0 .333-.055.388-.333.334-1.333.611-2.722.945-4.055.055-.166.055-.277.11-.444h.112zm1.833-12.331zm0 0c.333.722.833 1.277.5 2.222-.333 1.11-.556 2.277-.833 3.388-.056.222-.167.333-.445.333h-4.61c-.167.889-.389 1.722-.555 2.61-.167.834-.39 1.723-.556 2.556-.111.555-.5.333-.778.333-.333 0-.333-.278-.277-.444l.5-2.5c.222-1.055.5-2.166.722-3.221.055-.278.222-.39.5-.39h4.166c.333 0 .5-.055.555-.388.278-1.333.611-2.722.944-4.055.056-.167.111-.222.167-.444zM11.387 11.83c-1.444 0-2.888 0-4.61.056.167-.778.333-1.5.5-2.222.11-.278.222-.555.222-.833.056-.389.278-.5.667-.5h3.499c.333 0 .5-.111.555-.444.223-1.167.5-2.333.778-3.5.056-.166.222-.333.333-.333h3.777c.056 0 .056 0 .167.056a141.534 141.534 0 0 1-.889 4.166h5c-.112.333-.167.666-.223.944-.166.722-.333 1.5-.5 2.222-.055.333-.166.444-.555.444h-4.166c-.278 0-.389.056-.444.333-.5 2.222-1 4.444-1.445 6.666-.166.888.278 1.5 1.222 1.555h3.722c.167 0 .333.056.555.056-.222.888-.388 1.777-.61 2.666v.055c-.223 1-.223 1-1.278 1-1.444 0-2.889 0-4.333-.055-.777 0-1.5-.223-2.222-.611-1.055-.611-1.721-1.778-1.5-2.944.278-1.556.612-3.11.945-4.666.278-1.278.555-2.5.833-3.777v-.334zm3.61 18.164c8.221.055 14.831-6.555 14.998-14.553C30.217 7.054 23.607.112 15.22 0 6.777-.055 0 6.666 0 14.998c0 8.331 6.721 14.997 14.998 14.997z"/></g></g></g></svg>