<svg xmlns="http://www.w3.org/2000/svg" width="20" height="20" viewBox="0 0 20 20">
  <g>
    <g>
      <g>
        <g>
          <path fill="#7f8cb5" d="M10 6.574A3.424 3.424 0 0 1 13.426 10 3.424 3.424 0 0 1 10 13.426 3.424 3.424 0 0 1 6.574 10 3.424 3.424 0 0 1 10 6.574zm0 8.246A4.823 4.823 0 0 0 14.82 10 4.834 4.834 0 0 0 10 5.18 4.834 4.834 0 0 0 5.18 10 4.823 4.823 0 0 0 10 14.82z"/>
        </g>
        <g>
          <path fill="#7f8cb5" d="M10.779 3.228V.778A.77.77 0 0 0 10 0a.77.77 0 0 0-.778.779v2.449a.77.77 0 0 0 .778.778.77.77 0 0 0 .779-.778z"/>
        </g>
        <g>
          <path fill="#7f8cb5" d="M9.222 16.772v2.45A.77.77 0 0 0 10 20a.77.77 0 0 0 .779-.778v-2.45a.77.77 0 0 0-.779-.778.77.77 0 0 0-.778.778z"/>
        </g>
        <g>
          <path fill="#7f8cb5" d="M15.044 6.057l1.728-1.728a.78.78 0 0 0-1.101-1.101l-1.728 1.728a.78.78 0 0 0 1.101 1.101z"/>
        </g>
        <g>
          <path fill="#7f8cb5" d="M3.228 16.772a.76.76 0 0 0 .55.228c.19 0 .4-.076.551-.228l1.728-1.728a.78.78 0 0 0-1.101-1.101L3.228 15.67a.78.78 0 0 0 0 1.101z"/>
        </g>
        <g>
          <path fill="#7f8cb5" d="M20 10a.77.77 0 0 0-.778-.778h-2.45a.77.77 0 0 0-.778.778.77.77 0 0 0 .778.779h2.45A.782.782 0 0 0 20 10z"/>
        </g>
        <g>
          <path fill="#7f8cb5" d="M.779 10.779h2.449A.77.77 0 0 0 4.006 10a.77.77 0 0 0-.778-.778H.778A.77.77 0 0 0 0 10c0 .437.36.779.779.779z"/>
        </g>
        <g>
          <path fill="#7f8cb5" d="M16.221 17a.78.78 0 0 0 .55-1.33l-1.727-1.727a.78.78 0 0 0-1.101 1.101l1.728 1.728c.152.152.36.228.55.228z"/>
        </g>
        <g>
          <path fill="#7f8cb5" d="M6.057 6.057a.78.78 0 0 0 0-1.101L4.33 3.228a.78.78 0 0 0-1.101 1.101l1.728 1.728a.76.76 0 0 0 .55.228.76.76 0 0 0 .551-.228z"/>
        </g>
      </g>
    </g>
  </g>
</svg>