<svg xmlns="http://www.w3.org/2000/svg" width="139" height="29" viewBox="0 0 139 29">
  <g>
    <g>
      <g>
        <path fill="#1d6ff7" d="M98.251 13.197c.083-.538.207-1.035.29-1.572.33-1.407.662-2.814.951-4.261.042-.29.166-.373.455-.373a66.23 66.23 0 0 0 4.054 0c1.862-.041 3.517 1.53 2.606 3.889-.496 1.324-1.571 2.027-2.937 2.234-.372.083-.703.083-1.075.083H98.25zM92.666 23.29c.083.042.124.042.166 0h2.978c.166 0 .207-.082.249-.248.455-2.234.951-4.426 1.447-6.66.042-.207.125-.29.373-.29 1.448 0 2.937.042 4.385 0 .744 0 1.53-.041 2.275-.165a6.81 6.81 0 0 0 3.64-1.738c1.2-1.075 1.862-2.44 2.069-4.054.165-1.2.041-2.316-.538-3.392-.993-1.779-2.606-2.606-4.55-2.648-2.69-.082-5.337-.04-8.026-.04-.165 0-.248.082-.29.247-.082.373-.165.704-.248 1.076-1.24 5.543-2.44 11.128-3.681 16.671l-.249 1.241z"/>
      </g>
      <g>
        <path fill="#1d6ff7" d="M112.482 16.92c.083-1.365.579-2.772 2.027-3.682 1.448-.952 3.599-.58 4.675.745.124.165.165.29.124.496-.331 1.365-.62 2.73-.91 4.095a.316.316 0 0 1-.083.207c-.869 1.117-2.4 1.82-3.848 1.365-1.24-.413-1.985-1.489-1.985-3.226zm8.315 5.998a1447.53 1447.53 0 0 1 2.896-12.907h-3.02c-.29 0-.414.083-.455.372-.042.414-.166.828-.249 1.283-.082-.042-.124-.042-.124-.083-1.158-1.448-2.73-1.986-4.55-1.861-1.779.124-3.185.91-4.26 2.233-1.738 2.11-2.318 4.592-1.945 7.281.165 1.076.62 2.027 1.406 2.772 1.53 1.49 4.757 1.779 6.62-.041l.578-.58c0 .042.042.042.042.042-.124.496-.207.993-.331 1.49h3.392z"/>
      </g>
      <g>
        <path fill="#1d6ff7" d="M64.412 23.166H60.73c-.248 0-.414-.082-.496-.33-.662-1.49-1.366-2.938-2.069-4.427-.041-.083-.082-.207-.165-.331-.083.041-.166.083-.207.124-.58.497-1.117.952-1.696 1.448a.9.9 0 0 0-.207.33c-.207.952-.414 1.904-.662 2.855 0 .083-.124.207-.165.207h-3.186v-.248c.952-4.344 1.903-8.646 2.855-12.99.29-1.406.62-2.813.91-4.22.041-.289.165-.372.455-.372.869.042 1.737 0 2.606 0h.372c-.786 3.475-1.53 6.909-2.316 10.343.041 0 .041.04.082.04.083-.082.166-.123.249-.206 1.82-1.655 3.599-3.35 5.419-5.006.207-.165.372-.248.662-.248h3.888c-.124.124-.165.207-.248.248a753.452 753.452 0 0 1-5.874 5.337c-.207.165-.207.29-.083.538 1.117 2.11 2.234 4.26 3.351 6.37.083.249.124.373.207.538z"/>
      </g>
      <g>
        <path fill="#1d6ff7" d="M48.32 15.72c-.083 1.407-.497 2.648-1.531 3.599-1.034.91-2.234 1.117-3.516.703-1.117-.372-1.78-1.365-1.82-2.73-.042-1.448.413-2.689 1.447-3.682 1.076-.993 2.317-1.24 3.682-.744 1.158.413 1.613 1.365 1.738 2.564v.29zm-2.855-6.04c-1.241-.041-2.4.207-3.558.869-2.771 1.49-4.385 4.675-3.97 7.819.247 1.613.992 2.937 2.398 3.847 1.324.827 2.813 1.075 4.385.993 1.366-.083 2.648-.497 3.724-1.283 2.482-1.779 3.557-4.22 3.268-7.24-.166-1.944-1.159-3.35-2.855-4.26-1.075-.538-2.234-.745-3.392-.745z"/>
      </g>
      <g>
        <path fill="#1d6ff7" d="M122.493 27.924c.372-1.035.745-1.945 1.117-2.896.455.041.91.124 1.365.124.58.041 1.034-.207 1.407-.662.33-.455.62-.91.951-1.365.041-.083.041-.207.041-.29-.29-1.737-.62-3.433-.91-5.17a361.29 361.29 0 0 0-1.158-6.537c-.041-.33-.124-.703-.207-1.075.124 0 .248-.042.331-.042h2.813c.248 0 .331.083.373.331.165 1.241.372 2.44.537 3.682.248 1.613.497 3.185.745 4.799 0 .041.041.082.083.165.082-.124.165-.207.206-.33 1.655-2.773 3.351-5.586 5.006-8.357.124-.207.248-.29.455-.29H139a.668.668 0 0 1-.165.29c-3.103 4.964-6.206 9.928-9.308 14.851-.373.62-.87 1.2-1.366 1.696-1.158 1.158-2.647 1.407-4.22 1.241-.495.041-.95-.041-1.447-.165z"/>
      </g>
      <g>
        <path fill="#1d6ff7" d="M69.128 15.224c.083-.207.124-.373.207-.58.662-1.447 1.737-2.275 3.31-2.316 1.199 0 2.357.413 2.854 1.696.124.33.124.703.165 1.034 0 .041-.124.207-.207.207h-6.246l-.083-.041zm-.29 2.316c.124 0 .29 0 .414-.041h8.811c.331 0 .414-.124.455-.373.125-.827.207-1.654.125-2.482-.166-1.696-.91-3.144-2.4-4.054-2.11-1.282-4.302-1.24-6.495-.207-2.937 1.407-4.633 4.675-4.22 7.943.249 1.738 1.076 3.103 2.607 3.93 2.11 1.159 4.344 1.2 6.619.538a6.949 6.949 0 0 0 1.944-.91c-.372-.745-.703-1.49-1.034-2.234-.083.041-.083.041-.124.041-1.076.662-2.234.91-3.475.87-.951-.042-1.779-.332-2.44-.994-.539-.538-.91-1.158-.787-2.027z"/>
      </g>
      <g>
        <path fill="#1d6ff7" d="M78.725 23.249c.207-.869.373-1.655.538-2.482.745-3.35 1.49-6.743 2.234-10.094.041-.207.124-.33.372-.33h3.062c-.125.537-.207 1.075-.331 1.571l.04.041c.084-.082.166-.124.25-.206.868-.786 1.82-1.407 2.936-1.614 1.117-.207 2.234-.165 3.268.331 1.366.62 2.069 1.945 1.738 3.392-.455 2.193-.952 4.344-1.407 6.537-.165.868-.372 1.696-.579 2.564-.041.166-.083.29-.29.29H87.62c-.042 0-.083 0-.166-.041.166-.662.29-1.324.414-1.986l1.365-6.205c.207-1.035-.414-1.862-1.49-1.986-1.489-.165-2.647.455-3.681 1.407-.083.082-.083.206-.124.29-.62 2.73-1.2 5.46-1.82 8.231-.042.125-.042.29-.249.29h-3.144z"/>
      </g>
      <g>
        <path fill="#1d6ff7" d="M43.107 4.054c-.207.952-.414 1.82-.62 2.73 0 .083-.207.125-.29.125h-5.212c-.249 0-.373.082-.455.33-1.076 4.923-2.152 9.805-3.227 14.728-.083.413-.166.827-.29 1.24h-3.35c1.2-5.419 2.399-10.838 3.598-16.298H27.47v-.29c.165-.786.372-1.572.538-2.358.041-.207.124-.248.33-.248h14.438c.124 0 .207.041.331.041z"/>
      </g>
      <g>
        <path fill="#1d6ff7" d="M.87 12.824C.87 6.205 6.248.827 12.908.87c6.578.041 11.873 5.336 11.914 11.955 0 6.785-5.584 12.038-11.997 11.956C6.413 24.862.87 19.609.87 12.824zm24.821.207C25.815 5.957 20.189 0 12.867 0S.084 5.874 0 12.617c-.124 7.405 5.916 13.114 12.824 13.031 6.868.083 12.742-5.502 12.866-12.617z"/>
      </g>
      <g>
        <path fill="#1d6ff7" d="M6.537 11.252c.952 0 1.78 0 2.69.042-.042.206-.083.413-.125.579 0 .041-.124.124-.207.124H7.572c-.124-.042-.249-.083-.331-.166a24.324 24.324 0 0 1-.704-.579zm9.391-5.791c.041.082 0 .165 0 .248-.041.33-.165.703-.207 1.034-.041.207-.124.248-.33.248h-.497c.165-.868.372-1.654.538-2.482h.082c.166.331.29.662.414.952zm1.241 11.335c.207.496.538.868.414 1.447-.248.828-.414 1.738-.62 2.607-.042.207-.125.29-.332.29-1.489 0-2.978.04-4.467-.042-1.117-.041-2.193-.414-2.938-1.365-.082-.083-.124-.207-.165-.331.124.083.248.207.414.29.744.496 1.613.703 2.482.703h4.054c.165 0 .248-.042.29-.249.248-.992.454-2.027.703-3.02.041-.124.041-.206.082-.33h.083zm1.365-9.184c.249.538.62.951.373 1.655-.249.827-.414 1.696-.62 2.523-.042.165-.125.248-.332.248H14.522c-.125.662-.29 1.283-.414 1.945-.124.62-.29 1.282-.414 1.902-.083.414-.372.249-.579.249-.248 0-.248-.207-.207-.331l.372-1.862c.166-.786.373-1.613.538-2.4.042-.206.166-.289.373-.289h3.102c.248 0 .373-.041.414-.29.207-.992.455-2.026.703-3.02.042-.123.083-.165.124-.33zm-8.397 2.854c-1.076 0-2.152 0-3.434.042.124-.58.248-1.117.372-1.655.083-.207.166-.414.166-.62.041-.29.207-.373.496-.373h2.606c.249 0 .373-.083.414-.331.166-.869.372-1.737.58-2.606.04-.124.165-.248.247-.248h2.813c.042 0 .042 0 .125.041a105.395 105.395 0 0 1-.662 3.103h3.723c-.083.248-.124.496-.166.703-.124.538-.248 1.117-.372 1.655-.041.248-.124.33-.414.33H13.53c-.207 0-.29.042-.331.249-.373 1.655-.745 3.31-1.076 4.964-.124.662.207 1.117.91 1.158h2.772c.124 0 .248.042.414.042-.166.662-.29 1.323-.455 1.985v.042c-.166.744-.166.744-.952.744-1.075 0-2.151 0-3.227-.041-.579 0-1.117-.165-1.654-.455-.786-.455-1.283-1.324-1.117-2.193.207-1.158.455-2.316.703-3.475.207-.951.414-1.861.62-2.813v-.248zm2.688 13.528c6.123.041 11.046-4.882 11.17-10.839.165-6.246-4.757-11.418-11.004-11.5-6.288-.042-11.335 4.964-11.335 11.17a11.15 11.15 0 0 0 11.17 11.169z"/>
      </g>
    </g>
  </g>
</svg>