<svg xmlns="http://www.w3.org/2000/svg" width="33" height="34" viewBox="0 0 33 34"><g><g><g><path fill="#7f8cb5" d="M30.756 8.53c-1.474-2.625-3.474-4.702-5.999-6.233C22.231.765 19.474 0 16.483 0c-2.99 0-5.748.766-8.273 2.297-2.526 1.531-4.525 3.608-6 6.232C.738 11.153 0 14.02 0 17.125c0 3.731 1.048 7.087 3.144 10.067 2.096 2.981 4.804 5.044 8.124 6.188.386.075.672.022.858-.156a.888.888 0 0 0 .28-.668l-.012-1.205c-.007-.758-.01-1.42-.01-1.984l-.494.089c-.315.06-.712.085-1.191.078a8.747 8.747 0 0 1-1.492-.156 3.274 3.274 0 0 1-1.438-.669 2.828 2.828 0 0 1-.944-1.37l-.215-.514a5.614 5.614 0 0 0-.676-1.137c-.308-.416-.619-.699-.933-.847l-.15-.112a1.6 1.6 0 0 1-.28-.268 1.23 1.23 0 0 1-.193-.312c-.043-.104-.007-.19.108-.257.114-.067.321-.1.622-.1l.43.067c.285.06.64.238 1.062.535.422.298.768.684 1.04 1.16.33.61.726 1.074 1.192 1.393.464.32.933.48 1.405.48s.88-.038 1.224-.112a4.16 4.16 0 0 0 .965-.334c.13-.997.48-1.762 1.052-2.297a14.198 14.198 0 0 1-2.2-.402 8.58 8.58 0 0 1-2.017-.87 5.836 5.836 0 0 1-1.728-1.493c-.458-.595-.834-1.376-1.127-2.342-.293-.966-.44-2.081-.44-3.345 0-1.799.566-3.33 1.696-4.593-.53-1.353-.48-2.869.15-4.549.415-.134 1.03-.033 1.846.301.816.335 1.413.621 1.792.859.38.237.683.439.912.602 1.331-.387 2.705-.58 4.121-.58 1.417 0 2.79.193 4.121.58l.816-.535a11.368 11.368 0 0 1 1.974-.981c.758-.298 1.338-.38 1.74-.246.643 1.68.7 3.196.17 4.549C26.434 12.903 27 14.434 27 16.233c0 1.263-.147 2.382-.44 3.355-.293.974-.672 1.754-1.137 2.342a6.056 6.056 0 0 1-1.738 1.483 8.596 8.596 0 0 1-2.018.87c-.651.178-1.384.312-2.2.401.744.669 1.116 1.724 1.116 3.166v4.705c0 .267.09.49.268.669.18.178.462.23.848.155 3.32-1.144 6.028-3.207 8.124-6.187 2.096-2.98 3.144-6.336 3.144-10.068 0-3.106-.738-5.971-2.211-8.595z"/></g></g></g></svg>