<svg xmlns="http://www.w3.org/2000/svg" width="33" height="33" viewBox="0 0 33 33"><g><g><g><path fill="#7f8cb5" d="M0 16.452C0 7.366 7.366 0 16.452 0c9.086 0 16.452 7.366 16.452 16.452 0 9.086-7.366 16.452-16.452 16.452C7.366 32.904 0 25.538 0 16.452z"/></g><g><g><path fill="#fff" d="M11.768 13.329c.897 0 1.624-.663 1.624-1.482 0-.82-.727-1.483-1.624-1.483-.897 0-1.624.663-1.624 1.483 0 .819.727 1.482 1.624 1.482"/></g><g><path fill="#fff" d="M10.516 22.861h2.913v-8.403h-2.913z"/></g><g><path fill="#fff" d="M17.518 18.187c0-.963.456-1.906 1.546-1.906s1.359.943 1.359 1.883v4.59h2.9v-4.777c0-3.32-1.962-3.891-3.168-3.891-1.206 0-1.871.407-2.637 1.396V14.35H14.61v8.404h2.908z"/></g></g></g></g></svg>