<svg xmlns="http://www.w3.org/2000/svg" width="33" height="33" viewBox="0 0 33 33"><g><g><g><path fill="#7f8cb5" d="M21.727 11.268l-9.977 6.188a.454.454 0 0 0-.194.52l1.338 4.312c.028.091.16.079.17-.016l.326-2.891a.454.454 0 0 1 .15-.29l8.449-7.47c.202-.18-.033-.495-.262-.353z"/></g><g><path fill="#7f8cb5" d="M25.525 9.389L22.42 24.236a.978.978 0 0 1-1.537.588l-4.689-3.442-2.39 2.44a.794.794 0 0 1-1.323-.316l-1.725-5.474-4.622-1.365c-.607-.179-.642-1.024-.053-1.254l18.188-7.087a.936.936 0 0 1 1.256 1.063zM16.483 0C7.38 0 0 7.38 0 16.484c0 9.103 7.38 16.483 16.483 16.483 9.104 0 16.484-7.38 16.484-16.483C32.967 7.38 25.587 0 16.483 0z"/></g></g></g></svg>