<svg xmlns="http://www.w3.org/2000/svg" width="33" height="33" viewBox="0 0 33 33"><g><g><g><g><path fill="#7f8cb5" d="M23.848 13.203c0 5.014-3.815 10.793-10.795 10.793-2.143 0-4.137-.626-5.816-1.703a7.615 7.615 0 0 0 5.617-1.57 3.798 3.798 0 0 1-3.544-2.636 3.824 3.824 0 0 0 1.713-.064 3.795 3.795 0 0 1-3.043-3.72v-.048a3.778 3.778 0 0 0 1.718.474 3.791 3.791 0 0 1-1.687-3.157c0-.696.187-1.348.514-1.908a10.773 10.773 0 0 0 7.819 3.965 3.794 3.794 0 0 1 6.465-3.461 7.573 7.573 0 0 0 2.41-.921 3.811 3.811 0 0 1-1.67 2.1 7.543 7.543 0 0 0 2.179-.598 7.631 7.631 0 0 1-1.891 1.962c.007.163.011.328.011.492zM16.483 0C7.395 0 0 7.395 0 16.483c0 9.089 7.395 16.484 16.483 16.484 9.089 0 16.484-7.395 16.484-16.484C32.967 7.395 25.573 0 16.483 0z"/></g></g></g></g></svg>