<svg xmlns="http://www.w3.org/2000/svg" width="33" height="33" viewBox="0 0 33 33"><g><g><g><g><path fill="#7f8cb5" d="M13.48 20.096l7.4-3.836-7.4-3.861v7.697z"/></g><g><path fill="#7f8cb5" d="M27.714 21.985c-.285 1.238-1.297 2.151-2.516 2.287-2.886.323-5.806.325-8.715.323-2.91.002-5.83 0-8.717-.323-1.218-.136-2.23-1.049-2.515-2.287-.406-1.763-.406-3.687-.406-5.502 0-1.814.005-3.739.41-5.502.285-1.237 1.297-2.15 2.516-2.287 2.886-.322 5.808-.324 8.716-.322 2.909-.002 5.83 0 8.716.322 1.219.136 2.231 1.05 2.516 2.287.406 1.763.402 3.688.402 5.502 0 1.815 0 3.74-.407 5.502zM16.484 0C7.38 0 0 7.38 0 16.483c0 9.104 7.38 16.484 16.483 16.484 9.104 0 16.484-7.38 16.484-16.484C32.967 7.38 25.587 0 16.483 0z"/></g></g></g></g></svg>