<svg xmlns="http://www.w3.org/2000/svg" width="114" height="23" viewBox="0 0 114 23"><g><g><g><path fill="#1c6ef6" d="M80.58 10.734c.068-.44.17-.848.238-1.289.271-1.154.543-2.307.78-3.495.034-.237.136-.305.373-.305 1.12.034 2.206.034 3.325 0 1.527-.034 2.884 1.255 2.138 3.19-.407 1.085-1.29 1.662-2.41 1.831-.305.068-.576.068-.881.068H80.58zM76 19.013c.068.034.102.034.136 0h2.442c.136 0 .17-.068.204-.204.373-1.832.78-3.63 1.188-5.462.033-.17.101-.238.305-.238 1.187 0 2.409.034 3.596 0 .611 0 1.256-.034 1.866-.136a5.586 5.586 0 0 0 2.986-1.425c.984-.882 1.527-2.001 1.696-3.324.136-.984.034-1.9-.44-2.783-.815-1.458-2.138-2.137-3.733-2.171-2.205-.068-4.376-.034-6.582-.034-.136 0-.203.068-.237.204-.068.305-.136.576-.204.882-1.018 4.546-2.002 9.126-3.02 13.673L76 19.013z"/></g><g><path fill="#1c6ef6" d="M93.914 10.768c1.188-.78 2.952-.475 3.834.61.102.137.136.238.102.408-.272 1.12-.51 2.24-.747 3.359a.26.26 0 0 1-.068.17c-.712.916-1.967 1.492-3.155 1.12-1.018-.34-1.628-1.222-1.628-2.647.067-1.12.474-2.273 1.662-3.02zm5.157 7.94c.78-3.53 1.56-7.058 2.375-10.586H98.97c-.237 0-.339.068-.373.305-.034.34-.136.679-.204 1.052-.067-.034-.101-.034-.101-.068-.95-1.187-2.24-1.629-3.732-1.527-1.46.102-2.613.747-3.495 1.832-1.425 1.73-1.9 3.766-1.595 5.972.136.882.51 1.662 1.154 2.273 1.255 1.221 3.902 1.459 5.428-.034l.475-.475c0 .034.034.034.034.034-.101.407-.17.814-.271 1.221h2.782z"/></g><g><path fill="#1c6ef6" d="M52.827 18.91h-3.02c-.203 0-.339-.067-.407-.27-.543-1.222-1.12-2.41-1.696-3.63-.034-.069-.068-.17-.136-.272-.068.034-.136.068-.17.102-.474.407-.916.78-1.39 1.187a.737.737 0 0 0-.17.271 58.3 58.3 0 0 1-.543 2.341c0 .068-.102.17-.136.17h-2.612v-.203c.78-3.563 1.56-7.091 2.34-10.654.238-1.153.51-2.307.747-3.46.034-.238.136-.306.374-.306.712.034 1.424 0 2.137 0h.305c-.644 2.85-1.255 5.666-1.9 8.482.034 0 .034.034.068.034.068-.068.136-.102.204-.17 1.493-1.357 2.952-2.748 4.444-4.105.17-.136.306-.203.543-.203H55c-.102.101-.136.17-.204.203a617.68 617.68 0 0 1-4.818 4.377c-.17.136-.17.237-.068.44.916 1.731 1.832 3.495 2.748 5.226.068.203.102.305.17.44z"/></g><g><path fill="#1c6ef6" d="M39.629 12.804c-.068 1.153-.407 2.171-1.255 2.952-.849.746-1.832.916-2.884.576-.916-.305-1.46-1.12-1.493-2.239-.034-1.187.34-2.205 1.187-3.02.883-.814 1.9-1.017 3.02-.61.95.34 1.323 1.12 1.425 2.103v.238zM37.288 7.85a5.324 5.324 0 0 0-2.918.713c-2.273 1.221-3.596 3.834-3.257 6.412.204 1.323.814 2.41 1.968 3.156 1.086.678 2.307.882 3.596.814 1.12-.068 2.172-.407 3.054-1.052 2.035-1.459 2.918-3.46 2.68-5.937-.136-1.595-.95-2.749-2.34-3.495-.883-.441-1.833-.61-2.783-.61z"/></g><g><path fill="#1c6ef6" d="M100.462 22.813c.306-.849.61-1.595.916-2.375.373.034.747.101 1.12.101.475.034.848-.17 1.153-.542.272-.374.51-.747.78-1.12.035-.068.035-.17.035-.238-.238-1.425-.51-2.816-.747-4.24-.305-1.799-.61-3.563-.95-5.361-.034-.272-.102-.577-.17-.882.102 0 .204-.034.272-.034h2.307c.204 0 .272.068.306.271.135 1.018.305 2.002.44 3.02.204 1.323.408 2.612.611 3.935 0 .034.034.068.068.136.068-.102.136-.17.17-.271 1.357-2.273 2.748-4.58 4.105-6.854.102-.17.204-.237.373-.237H114a.548.548 0 0 1-.136.237c-2.545 4.072-5.09 8.143-7.634 12.18-.305.51-.713.984-1.12 1.391-.95.95-2.171 1.154-3.46 1.018-.407.034-.78-.034-1.188-.135z"/></g><g><path fill="#1c6ef6" d="M56.695 12.397c.068-.17.102-.306.17-.475.542-1.188 1.425-1.866 2.714-1.9.984 0 1.934.339 2.34 1.39.103.272.103.578.137.849 0 .034-.102.17-.17.17h-5.123l-.068-.034zm-.238 1.9c.102 0 .238 0 .34-.034h7.226c.272 0 .34-.102.374-.306.101-.678.17-1.357.101-2.035-.135-1.391-.746-2.579-1.968-3.325-1.73-1.052-3.528-1.018-5.326-.17-2.41 1.154-3.8 3.834-3.46 6.514.203 1.425.881 2.545 2.137 3.224 1.73.95 3.562.983 5.428.44a5.699 5.699 0 0 0 1.595-.746c-.306-.61-.577-1.221-.848-1.832-.068.034-.068.034-.102.034-.882.543-1.832.746-2.85.712-.78-.033-1.46-.271-2.002-.814-.441-.44-.746-.95-.645-1.662z"/></g><g><path fill="#1c6ef6" d="M64.566 18.979c.17-.713.306-1.357.441-2.036.611-2.748 1.222-5.53 1.832-8.278.034-.17.102-.272.306-.272h2.51c-.101.441-.17.882-.271 1.29l.034.033c.068-.067.136-.101.204-.17.712-.644 1.492-1.153 2.408-1.322.916-.17 1.833-.136 2.68.271 1.12.509 1.697 1.595 1.426 2.782-.374 1.798-.78 3.563-1.154 5.36-.136.713-.305 1.392-.475 2.104-.034.136-.068.238-.237.238h-2.41c-.033 0-.067 0-.135-.034.136-.543.238-1.086.34-1.629l1.119-5.089c.17-.848-.34-1.527-1.221-1.629-1.222-.135-2.172.374-3.02 1.154-.068.068-.068.17-.102.238-.509 2.239-.984 4.478-1.493 6.751-.034.102-.034.238-.203.238h-2.579z"/></g><g><path fill="#1c6ef6" d="M35.354 3.236c-.17.78-.34 1.493-.509 2.24 0 .067-.17.101-.237.101H30.333c-.204 0-.306.068-.374.272-.882 4.037-1.764 8.04-2.646 12.078-.068.34-.136.679-.237 1.018h-2.749c.984-4.445 1.968-8.89 2.952-13.368h-4.75V5.34c.136-.645.306-1.29.441-1.934.034-.17.102-.204.272-.204h11.84c.102 0 .17.034.272.034z"/></g><g><path fill="#1c6ef6" d="M10.519 20.234c-5.26.068-9.806-4.24-9.806-9.805C.713 5 5.124.589 10.586.624c5.395.034 9.738 4.376 9.772 9.805 0 5.564-4.58 9.873-9.84 9.805zm10.551-9.636A10.478 10.478 0 0 0 10.553-.088 10.5 10.5 0 0 0 0 10.26c-.102 6.073 4.852 10.755 10.518 10.688 5.632.067 10.45-4.513 10.551-10.348z"/></g><g><path fill="#1c6ef6" d="M5.362 9.14zm0 0c.78 0 1.458 0 2.205.034-.034.17-.068.339-.102.475 0 .033-.102.101-.17.101H6.21c-.102-.034-.204-.068-.272-.135-.17-.136-.339-.272-.576-.475zm7.362-5.53c.136.27.237.542.34.78.033.068 0 .135 0 .203-.035.272-.136.577-.17.848-.034.17-.102.204-.272.204h-.407c.136-.712.305-1.357.441-2.036h.068zm1.357 10.076c.17.407.441.712.34 1.187-.204.679-.34 1.425-.51 2.138-.033.17-.101.237-.271.237-1.221 0-2.443.034-3.664-.034-.916-.033-1.798-.339-2.41-1.12-.067-.067-.1-.169-.135-.27.102.067.204.17.34.237.61.407 1.323.577 2.035.577h3.325c.136 0 .204-.034.238-.204.203-.814.373-1.662.576-2.477.034-.101.034-.17.068-.271h.068zm1.12-7.532c.203.441.509.78.305 1.357-.203.679-.34 1.391-.509 2.07-.034.135-.102.203-.271.203H11.91c-.102.543-.238 1.052-.34 1.595-.101.509-.237 1.052-.339 1.56-.068.34-.305.204-.475.204-.203 0-.203-.17-.17-.271l.306-1.527c.136-.645.305-1.323.44-1.968.035-.17.137-.237.306-.237h2.545c.203 0 .305-.034.34-.238.169-.814.372-1.662.576-2.477.034-.101.068-.135.102-.271zm-6.888 2.34c-.882 0-1.764 0-2.816.035.102-.475.204-.916.306-1.357.067-.17.135-.34.135-.51.034-.237.17-.305.407-.305h2.138c.204 0 .305-.067.34-.271.135-.712.305-1.425.474-2.137.034-.102.136-.204.204-.204h2.307c.034 0 .034 0 .102.034-.17.848-.34 1.662-.543 2.545h3.053c-.067.203-.101.407-.135.576-.102.441-.204.916-.306 1.357-.034.204-.101.272-.339.272h-2.545c-.17 0-.237.034-.271.203-.305 1.358-.61 2.715-.882 4.072-.102.543.17.916.746.95h2.273c.102 0 .204.034.34.034-.136.543-.238 1.085-.373 1.628v.034c-.136.61-.136.61-.78.61-.883 0-1.765 0-2.647-.033-.475 0-.916-.136-1.357-.373-.645-.373-1.052-1.086-.916-1.798.17-.95.373-1.9.576-2.85.17-.78.34-1.527.51-2.307v-.204zM10.52 19.59c5.021.034 9.058-4.003 9.16-8.889.136-5.123-3.901-9.364-9.025-9.432-5.157-.034-9.296 4.072-9.296 9.16 0 5.09 4.105 9.161 9.16 9.161z"/></g></g></g></svg>